<svg xmlns="http://www.w3.org/2000/svg" width="200" height="200" aria-hidden="true" aria-labelledby="svgcid--80x14vacibag" data-bbox="20 34.606 159.999 126.634" data-type="color" viewBox="20 34.606 159.999 126.634"><defs><style></style></defs><path fill-rule="evenodd" d="M60.163 40.369a5.763 5.763 0 1 1-11.526 0 5.763 5.763 0 0 1 11.526 0z" clip-rule="evenodd" data-color="1"/><path fill="#E7E7EB" fill-rule="evenodd" d="m37.029 103.69 40.464 40.531a9.606 9.606 0 0 1 0 13.572l-.627.628a9.604 9.604 0 0 1-13.583.011l-.011-.011-40.465-40.531a9.606 9.606 0 0 1 0-13.572l.627-.628a9.604 9.604 0 0 1 13.583-.011c.005.003.008.007.012.011z" clip-rule="evenodd" data-color="2"/><path fill="#9E3FFD" fill-rule="evenodd" d="M62.556 144.076 162.971 43.492a9.604 9.604 0 0 1 13.583-.011l.011.011.627.628a9.606 9.606 0 0 1 0 13.572L76.777 158.276a9.604 9.604 0 0 1-13.583.011l-.011-.011-.627-.628a9.604 9.604 0 0 1 0-13.572z" clip-rule="evenodd" data-color="3"/></svg>